<?xml version="1.0" encoding="UTF-8" standalone="no"?>
<!-- Created with Inkscape (http://www.inkscape.org/) -->

<svg
   xmlns:osb="http://www.openswatchbook.org/uri/2009/osb"
   xmlns:dc="http://purl.org/dc/elements/1.1/"
   xmlns:cc="http://creativecommons.org/ns#"
   xmlns:rdf="http://www.w3.org/1999/02/22-rdf-syntax-ns#"
   xmlns:svg="http://www.w3.org/2000/svg"
   xmlns="http://www.w3.org/2000/svg"
   xmlns:sodipodi="http://sodipodi.sourceforge.net/DTD/sodipodi-0.dtd"
   xmlns:inkscape="http://www.inkscape.org/namespaces/inkscape"
   width="29.700001cm"
   height="21cm"
   viewBox="0 0 297 210"
   version="1.1"
   id="svg8"
   sodipodi:docname="img00.svg"
   inkscape:version="0.92+devel unknown"
   inkscape:export-filename="/home/keiji/img00.png"
   inkscape:export-xdpi="96"
   inkscape:export-ydpi="96">
  <defs
     id="defs2">
    <marker
       inkscape:stockid="Arrow2Lend"
       orient="auto"
       refY="0.0"
       refX="0.0"
       id="Arrow2Lend"
       style="overflow:visible;"
       inkscape:isstock="true">
      <path
         id="path6042"
         style="fill-rule:evenodd;stroke-width:0.625;stroke-linejoin:round;stroke:#000000;stroke-opacity:1;fill:#000000;fill-opacity:1"
         d="M 8.7185878,4.0337352 L -2.2072895,0.016013256 L 8.7185884,-4.0017078 C 6.9730900,-1.6296469 6.9831476,1.6157441 8.7185878,4.0337352 z "
         transform="scale(1.1) rotate(180) translate(1,0)" />
    </marker>
    <marker
       inkscape:stockid="Arrow1Lend"
       orient="auto"
       refY="0.0"
       refX="0.0"
       id="Arrow1Lend"
       style="overflow:visible;"
       inkscape:isstock="true">
      <path
         id="path6024"
         d="M 0.0,0.0 L 5.0,-5.0 L -12.5,0.0 L 5.0,5.0 L 0.0,0.0 z "
         style="fill-rule:evenodd;stroke:#000000;stroke-width:1pt;stroke-opacity:1;fill:#000000;fill-opacity:1"
         transform="scale(0.8) rotate(180) translate(12.5,0)" />
    </marker>
    <marker
       inkscape:stockid="Arrow1Lstart"
       orient="auto"
       refY="0.0"
       refX="0.0"
       id="marker6333"
       style="overflow:visible"
       inkscape:isstock="true">
      <path
         id="path6331"
         d="M 0.0,0.0 L 5.0,-5.0 L -12.5,0.0 L 5.0,5.0 L 0.0,0.0 z "
         style="fill-rule:evenodd;stroke:#000000;stroke-width:1pt;stroke-opacity:1;fill:#000000;fill-opacity:1"
         transform="scale(0.8) translate(12.5,0)" />
    </marker>
    <marker
       inkscape:stockid="Arrow1Lstart"
       orient="auto"
       refY="0.0"
       refX="0.0"
       id="marker6305"
       style="overflow:visible"
       inkscape:isstock="true">
      <path
         id="path6303"
         d="M 0.0,0.0 L 5.0,-5.0 L -12.5,0.0 L 5.0,5.0 L 0.0,0.0 z "
         style="fill-rule:evenodd;stroke:#000000;stroke-width:1pt;stroke-opacity:1;fill:#000000;fill-opacity:1"
         transform="scale(0.8) translate(12.5,0)" />
    </marker>
    <marker
       inkscape:stockid="Arrow1Lstart"
       orient="auto"
       refY="0.0"
       refX="0.0"
       id="Arrow1Lstart"
       style="overflow:visible"
       inkscape:isstock="true">
      <path
         id="path6021"
         d="M 0.0,0.0 L 5.0,-5.0 L -12.5,0.0 L 5.0,5.0 L 0.0,0.0 z "
         style="fill-rule:evenodd;stroke:#000000;stroke-width:1pt;stroke-opacity:1;fill:#000000;fill-opacity:1"
         transform="scale(0.8) translate(12.5,0)" />
    </marker>
    <linearGradient
       id="linearGradient6007"
       osb:paint="solid">
      <stop
         style="stop-color:#ff0000;stop-opacity:1;"
         offset="0"
         id="stop6005" />
    </linearGradient>
    <linearGradient
       id="linearGradient5973"
       osb:paint="solid">
      <stop
         style="stop-color:#ff0000;stop-opacity:1;"
         offset="0"
         id="stop5971" />
    </linearGradient>
  </defs>
  <sodipodi:namedview
     id="base"
     pagecolor="#ffffff"
     bordercolor="#666666"
     borderopacity="1.0"
     inkscape:pageopacity="0.0"
     inkscape:pageshadow="2"
     inkscape:zoom="0.98994949"
     inkscape:cx="596.53538"
     inkscape:cy="361.72271"
     inkscape:document-units="mm"
     inkscape:current-layer="layer1"
     inkscape:document-rotation="0"
     showgrid="false"
     inkscape:window-width="1920"
     inkscape:window-height="1021"
     inkscape:window-x="0"
     inkscape:window-y="31"
     inkscape:window-maximized="1"
     units="cm" />
  <metadata
     id="metadata5">
    <rdf:RDF>
      <cc:Work
         rdf:about="">
        <dc:format>image/svg+xml</dc:format>
        <dc:type
           rdf:resource="http://purl.org/dc/dcmitype/StillImage" />
        <dc:title></dc:title>
      </cc:Work>
    </rdf:RDF>
  </metadata>
  <g
     inkscape:label="Layer 1"
     inkscape:groupmode="layer"
     id="layer1"
     transform="translate(0,-87)">
    <path
       style="fill:none;fill-opacity:1;fill-rule:evenodd;stroke:#000000;stroke-width:0.26193792;stroke-opacity:1"
       d="m 88.408068,231.32001 a 15.431406,15.275948 0 0 1 -15.394441,15.2759 15.431406,15.275948 0 0 1 -15.468194,-15.20272 15.431406,15.275948 0 0 1 15.320333,-15.34874 15.431406,15.275948 0 0 1 15.541593,15.12919 z"
       id="path6017" />
    <text
       xml:space="preserve"
       style="font-style:normal;font-weight:normal;font-size:10.58333302px;font-family:sans-serif;fill:#000000;fill-opacity:1;stroke:none;stroke-width:0.26458332"
       x="69.043251"
       y="234.78447"
       id="text6923"><tspan
         sodipodi:role="line"
         id="tspan6921"
         x="69.043251"
         y="234.78447"
         style="stroke-width:0.26458332">A</tspan></text>
    <path
       id="path6926"
       d="m 88.408068,231.32001 a 15.431406,15.275948 0 0 1 -15.394441,15.2759 15.431406,15.275948 0 0 1 -15.468194,-15.20272 15.431406,15.275948 0 0 1 15.320333,-15.34874 15.431406,15.275948 0 0 1 15.541593,15.12919 z"
       style="fill:none;fill-opacity:1;fill-rule:evenodd;stroke:#000000;stroke-width:0.26193792;stroke-opacity:1" />
    <path
       style="fill:none;fill-opacity:1;fill-rule:evenodd;stroke:#000000;stroke-width:0.26193792;stroke-opacity:1"
       d="m 88.408068,231.32001 a 15.431406,15.275948 0 0 1 -15.394441,15.2759 15.431406,15.275948 0 0 1 -15.468194,-15.20272 15.431406,15.275948 0 0 1 15.320333,-15.34874 15.431406,15.275948 0 0 1 15.541593,15.12919 z"
       id="path6928" />
    <path
       style="opacity:0.98000004;fill:none;fill-opacity:1;fill-rule:evenodd;stroke:#000000;stroke-width:0.465;stroke-miterlimit:4;stroke-dasharray:none;stroke-opacity:1"
       id="path6934"
       sodipodi:type="arc"
       sodipodi:cx="213.41498"
       sodipodi:cy="154.39673"
       sodipodi:rx="15.840401"
       sodipodi:ry="15.817122"
       sodipodi:start="0"
       sodipodi:end="6.2736034"
       sodipodi:open="true"
       sodipodi:arc-type="arc"
       d="m 229.25538,154.39673 a 15.840401,15.817122 0 0 1 -15.80246,15.81708 15.840401,15.817122 0 0 1 -15.87816,-15.7413 15.840401,15.817122 0 0 1 15.72638,-15.8925 15.840401,15.817122 0 0 1 15.95351,15.66516" />
    <flowRoot
       xml:space="preserve"
       id="flowRoot6936"
       style="font-style:normal;font-weight:normal;font-size:40px;font-family:sans-serif;fill:#000000;fill-opacity:1;stroke:none"
       transform="matrix(0.26458333,0,0,0.26458333,31.57012,63.488626)"><flowRegion
         id="flowRegion6938"><rect
           id="rect6940"
           width="60.221962"
           height="45.706875"
           x="674.48828"
           y="323.57932" /></flowRegion><flowPara
         id="flowPara6942">B</flowPara><flowPara
         id="flowPara6944" /></flowRoot>    <path
       style="opacity:0.98000004;fill:none;fill-opacity:1;fill-rule:evenodd;stroke:#000000;stroke-width:0.65132779;stroke-miterlimit:4;stroke-dasharray:2.60531118, 2.60531118;stroke-dashoffset:0;stroke-opacity:1"
       id="path6956"
       sodipodi:type="arc"
       sodipodi:cx="213.8434"
       sodipodi:cy="157.3605"
       sodipodi:rx="57.166309"
       sodipodi:ry="58.526443"
       sodipodi:start="0"
       sodipodi:end="6.2736034"
       sodipodi:open="true"
       sodipodi:arc-type="arc"
       d="m 271.00971,157.3605 a 57.166309,58.526443 0 0 1 -57.02937,58.52628 57.166309,58.526443 0 0 1 -57.30259,-58.24588 57.166309,58.526443 0 0 1 56.75483,-58.805328 57.166309,58.526443 0 0 1 57.5745,57.964148" />
    <path
       style="opacity:0.98000004;fill:none;fill-opacity:1;fill-rule:evenodd;stroke:#000000;stroke-width:0.46785641;stroke-miterlimit:4;stroke-dasharray:1.8714256, 1.8714256;stroke-dashoffset:0;stroke-opacity:1"
       id="path6958"
       sodipodi:type="arc"
       sodipodi:cx="73.609688"
       sodipodi:cy="231.3876"
       sodipodi:rx="59.429287"
       sodipodi:ry="59.232807"
       sodipodi:start="0"
       sodipodi:end="6.2736034"
       sodipodi:open="true"
       sodipodi:arc-type="arc"
       d="M 133.03897,231.3876 A 59.429287,59.232807 0 0 1 73.752049,290.62024 59.429287,59.232807 0 0 1 14.181083,231.67138 59.429287,59.232807 0 0 1 73.182607,172.15633 59.429287,59.232807 0 0 1 133.03625,230.82005" />
    <path
       style="fill:none;stroke:#000000;stroke-width:0.265;stroke-linecap:butt;stroke-linejoin:miter;stroke-opacity:1;stroke-miterlimit:4;stroke-dasharray:none"
       d="m 88.408067,231.32001 c 44.628183,-0.49996 44.628183,-0.49996 44.628183,-0.49996 z"
       id="path6962"
       inkscape:connector-curvature="0"
       sodipodi:nodetypes="ccc" />
    <text
       xml:space="preserve"
       style="font-style:normal;font-weight:normal;font-size:4.71529531px;font-family:sans-serif;fill:#ea0000;fill-opacity:1;stroke:none;stroke-width:0.11788238;"
       x="91.906487"
       y="252.62938"
       id="text6966"
       transform="scale(1.0983431,0.91046229)"><tspan
         sodipodi:role="line"
         id="tspan6964"
         x="91.906487"
         y="252.62938"
         style="stroke-width:0.11788238;fill:#ea0000;fill-opacity:1;">radius</tspan></text>
    <text
       xml:space="preserve"
       style="font-style:normal;font-weight:normal;font-size:5.07538033px;font-family:sans-serif;fill:#fe0000;fill-opacity:1;stroke:none;stroke-width:0.12688451;"
       x="57.358562"
       y="178.41522"
       id="text7050"
       transform="scale(1.0425074,0.95922581)"><tspan
         sodipodi:role="line"
         id="tspan7048"
         x="57.358562"
         y="178.41522"
         style="stroke-width:0.12688451;fill:#fe0000;fill-opacity:1;">BLE Range</tspan></text>
  </g>
</svg>
